<svg version="1.1" xmlns="http://www.w3.org/2000/svg" xmlns:xlink="http://www.w3.org/1999/xlink" width="31.97386" height="44.3473" viewBox="0,0,31.97386,44.3473"><defs><linearGradient x1="238.35751" y1="166.09356" x2="241.64249" y2="166.09356" gradientUnits="userSpaceOnUse" id="color-1"><stop offset="0" stop-color="#a0d9e8"/><stop offset="1" stop-color="#8bbcc9"/></linearGradient><linearGradient x1="237.37201" y1="154.15811" x2="242.62799" y2="154.15811" gradientUnits="userSpaceOnUse" id="color-2"><stop offset="0" stop-color="#a0d9e8"/><stop offset="1" stop-color="#8bbcc9"/></linearGradient></defs><g transform="translate(-224.01307,-151.63963)"><g data-paper-data="{&quot;isPaintingLayer&quot;:true}" fill-rule="nonzero" stroke="none" stroke-linecap="butt" stroke-linejoin="miter" stroke-miterlimit="10" stroke-dasharray="" stroke-dashoffset="0" style="mix-blend-mode: normal"><path d="M224.01307,180c0,-8.82934 7.15759,-15.98693 15.98693,-15.98693c8.82934,0 15.98693,7.15759 15.98693,15.98693c0,8.82934 -7.15759,15.98693 -15.98693,15.98693c-8.82934,0 -15.98693,-7.15759 -15.98693,-15.98693z" fill="#a0d9e8" stroke-width="none"/><path d="M231.02104,180c0,-4.95894 4.02002,-8.97896 8.97896,-8.97896c4.95894,0 8.97896,4.02002 8.97896,8.97896c0,4.95894 -4.02002,8.97896 -8.97896,8.97896c-4.95894,0 -8.97896,-4.02002 -8.97896,-8.97896z" fill="#8bbcc9" stroke-width="none"/><path d="M237.04351,179.4525v-6.13197h5.91297v6.13197z" fill="#7299a5" stroke-width="0"/><path d="M238.35751,176.49601v-20.80491h3.28499v20.80491z" fill="url(#color-1)" stroke-width="0"/><path d="M237.37201,156.6766v-5.03698h5.25598v5.03698z" fill="url(#color-2)" stroke-width="0"/></g></g></svg>