<svg version="1.1" xmlns="http://www.w3.org/2000/svg" xmlns:xlink="http://www.w3.org/1999/xlink" width="43.7009" height="31.97386" viewBox="0,0,43.7009,31.97386"><defs><linearGradient x1="253.26004" y1="178.25297" x2="253.26004" y2="181.53796" gradientUnits="userSpaceOnUse" id="color-1"><stop offset="0" stop-color="#a0d9e8"/><stop offset="1" stop-color="#8bbcc9"/></linearGradient><linearGradient x1="265.19548" y1="177.26748" x2="265.19548" y2="182.52346" gradientUnits="userSpaceOnUse" id="color-2"><stop offset="0" stop-color="#a0d9e8"/><stop offset="1" stop-color="#8bbcc9"/></linearGradient></defs><g transform="translate(-224.01307,-164.01307)"><g data-paper-data="{&quot;isPaintingLayer&quot;:true}" fill-rule="nonzero" stroke="none" stroke-linecap="butt" stroke-linejoin="miter" stroke-miterlimit="10" stroke-dasharray="" stroke-dashoffset="0" style="mix-blend-mode: normal"><path d="M240,164.01307c8.82934,0 15.98693,7.15759 15.98693,15.98693c0,8.82934 -7.15759,15.98693 -15.98693,15.98693c-8.82934,0 -15.98693,-7.1576 -15.98693,-15.98693c0,-8.82933 7.15759,-15.98693 15.98693,-15.98693z" fill="#a0d9e8" stroke-width="none"/><path d="M240,170.91651c4.95894,0 8.97896,4.02002 8.97896,8.97896c0,4.95894 -4.02002,8.97896 -8.97896,8.97896c-4.95894,0 -8.97896,-4.02002 -8.97896,-8.97896c0,-4.95894 4.02002,-8.97896 8.97896,-8.97896z" fill="#8bbcc9" stroke-width="none"/><path d="M239.9011,176.93898l6.13197,0v5.91297h-6.13197z" fill="#7299a5" stroke-width="0"/><path d="M242.85758,178.25297h20.8049v3.28499l-20.80491,0z" fill="url(#color-1)" stroke-width="0"/><path d="M262.67699,177.26748h5.03698v5.25598h-5.03698z" fill="url(#color-2)" stroke-width="0"/></g></g></svg>