<svg xml:space="preserve" viewBox="19.843 15.586 39.686 31.17" height="31.17px" width="39.686px" y="0px" x="0px" xmlns:xlink="http://www.w3.org/1999/xlink" xmlns="http://www.w3.org/2000/svg" id="レイヤー_1" version="1.1">
<path d="M34.743,29.867c-0.336,1.244-1.064,2.133-1.623,1.98c-0.561-0.15-0.74-1.282-0.402-2.529
	c0.336-1.244,1.063-2.133,1.623-1.98C34.899,27.489,35.081,28.621,34.743,29.867L34.743,29.867z" fill="#FFFFFF"></path>
<path d="M41.856,29.121c-0.508,1.619-1.51,2.748-2.236,2.519c-0.729-0.228-0.906-1.726-0.398-3.344
	c0.51-1.621,1.512-2.748,2.24-2.52C42.188,26.005,42.366,27.503,41.856,29.121L41.856,29.121z" fill="#FFFFFF"></path>
<path d="M38.138,32.86c-0.422,0.847-1.138,1.461-1.883,1.525c-0.836,0.07-1.464-0.568-1.619-1.525h-0.6
	c0.108,1.402,0.961,2.375,2.129,2.275c1.053-0.09,2.055-1.025,2.572-2.275H38.138z" fill="#FFFFFF"></path>
<path d="M54.177,18.074c0,1.377-1.115,2.49-2.49,2.49s-2.49-1.114-2.49-2.49c0-1.375,1.115-2.489,2.49-2.489
	S54.177,16.699,54.177,18.074L54.177,18.074z" fill="#FFFFFF"></path>
<path d="M44.177,31.292h1.625c0.17-1.321,0.66-3.028,1.438-4.811c0.963-2.214,2.136-4.026,3.139-4.979
	c0.066-0.08,0.133-0.158,0.198-0.235c-0.795-0.256-1.455-0.81-1.848-1.531c-1.297,1.811-2.42,4.041-3.256,6.534
	c-0.198-3.385-1.311-5.695-3.02-5.695c-1.929,0-4.043,2.955-5.304,7.078c-0.155-2.369-0.942-3.98-2.143-3.98
	c-1.739,0-3.686,3.371-4.35,7.529c-0.004,0.029-0.008,0.059-0.014,0.088h0.709c0.006-0.029,0.01-0.058,0.014-0.088
	c0.514-3.223,2.023-5.836,3.371-5.836s2.023,2.613,1.508,5.836c-0.004,0.029-0.01,0.059-0.014,0.088h1.084
	c0.006-0.041,0.012-0.082,0.02-0.125c0.723-4.532,2.846-8.207,4.74-8.207s2.846,3.675,2.123,8.207
	C44.192,31.21,44.185,31.251,44.177,31.292L44.177,31.292z" fill="#FFFFFF"></path>
<path d="M47.872,36.058c-0.422,1.03-1.191,1.782-1.721,1.682c-0.529-0.102-0.617-1.018-0.197-2.049
	c0.42-1.03,1.19-1.781,1.721-1.68C48.204,34.112,48.291,35.03,47.872,36.058L47.872,36.058z" fill="#FFFFFF"></path>
<path d="M51.145,35.549c-0.599,1.348-1.595,2.326-2.224,2.186c-0.63-0.139-0.652-1.343-0.051-2.689
	c0.6-1.346,1.596-2.324,2.225-2.186C51.722,33,51.745,34.203,51.145,35.549L51.145,35.549z" fill="#FFFFFF"></path>
<path d="M43.181,39.528H49.5l0.612-1.506H44.21v-0.005h-0.414l0.611-1.5h-2.123l-0.623,1.521h-0.008l-0.602,1.466
	h0.004l-0.082,0.197h0.007l-1.115,2.72c-0.48,1.354,0.205,1.864,2.127,1.864h5.58l0.623-1.535h-5.088
	c-0.843,0-1.177-0.161-0.899-0.84L43.181,39.528z M41.405,38.038H38.81l0.621-1.521H37.22l-0.621,1.521h-4.832l-0.604,1.47h4.824
	l-0.115,0.241c-0.91,1.798-2.531,2.783-5.326,3.128l-0.604,1.48c3.995-0.317,6.588-1.77,7.988-4.319h0.002l0.303-0.531h2.566
	L41.405,38.038z" fill="#FFFFFF"></path>
<path d="M57.763,38.043l0.521-1.28h-2.131l-0.521,1.28h-5.305l-0.611,1.488h2.779
	c-0.998,1.299-2.334,2.367-4.053,3.105l-0.686,1.67h0.178c2.564-0.797,5.047-2.422,6.68-4.775h0.41l-2.137,5.236h2.131l2.135-5.236
	h1.768l0.607-1.488H57.763z" fill="#FFFFFF"></path>
<path d="M20.275,36.617l-0.432,2.047h0.021l-0.006,0.028h8.857l-0.115,0.297h-0.002
	c-0.198,0.535-0.472,1.023-0.814,1.465c-0.625,0.946-1.549,1.721-2.842,2.369l-0.348-0.625c-0.004,0-0.006,0.002-0.01,0.004
	c-0.115-0.191-0.231-0.377-0.342-0.556c0.004-0.003,0.01-0.005,0.014-0.007c-0.242-0.388-0.479-0.754-0.705-1.077h-0.016
	c-0.012-0.016-0.021-0.033-0.033-0.052l-2.428-0.002c0.916,1.334,1.857,2.982,2.717,4.818c0.225,0.48,0.438,0.957,0.636,1.428
	l2.541,0.002c-0.34-0.803-0.828-1.811-1.379-2.816c2.952-1.039,5.334-3.231,6.271-7.145l0.034-0.168L20.275,36.617z" fill="#FFFFFF"></path>
</svg>
