<?xml version="1.0" encoding="utf-8"?>
<!-- Generator: Adobe Illustrator 15.1.0, SVG Export Plug-In . SVG Version: 6.00 Build 0)  -->
<!DOCTYPE svg PUBLIC "-//W3C//DTD SVG 1.1//EN" "http://www.w3.org/Graphics/SVG/1.1/DTD/svg11.dtd">
<svg version="1.1" id="レイヤー_1" xmlns="http://www.w3.org/2000/svg" xmlns:xlink="http://www.w3.org/1999/xlink" x="0px"
	 y="0px" width="79.371px" height="62.342px" viewBox="554.101 1442.128 79.371 62.342"
	 enable-background="new 554.101 1442.128 79.371 62.342" xml:space="preserve">
<g>
	<path fill="#093B95" d="M583.902,1470.692c-0.672,2.488-2.129,4.267-3.246,3.961c-1.121-0.301-1.48-2.565-0.805-5.059
		c0.672-2.488,2.125-4.267,3.246-3.961C584.215,1465.935,584.578,1468.199,583.902,1470.692L583.902,1470.692z"/>
	<path fill="#093B95" d="M598.129,1469.199c-1.016,3.238-3.02,5.496-4.473,5.039c-1.457-0.457-1.813-3.453-0.797-6.69
		c1.02-3.242,3.023-5.496,4.48-5.039C598.792,1462.966,599.148,1465.962,598.129,1469.199L598.129,1469.199z"/>
	<path fill="#093B95" d="M590.691,1476.677c-0.844,1.694-2.274,2.922-3.766,3.051c-1.672,0.141-2.927-1.137-3.238-3.051h-1.199
		c0.218,2.805,1.922,4.75,4.258,4.551c2.105-0.18,4.109-2.051,5.145-4.551H590.691z"/>
	<path fill="#093B95" d="M622.769,1447.106c0,2.754-2.23,4.979-4.98,4.979s-4.98-2.227-4.98-4.979c0-2.75,2.23-4.978,4.98-4.978
		S622.769,1444.356,622.769,1447.106L622.769,1447.106z"/>
	<path fill="#093B95" d="M602.769,1473.54h3.25c0.34-2.642,1.32-6.056,2.875-9.621c1.926-4.427,4.272-8.052,6.277-9.957
		c0.133-0.16,0.266-0.316,0.398-0.47c-1.59-0.512-2.91-1.62-3.696-3.063c-2.593,3.621-4.839,8.082-6.511,13.069
		c-0.398-6.77-2.621-11.391-6.039-11.391c-3.859,0-8.086,5.91-10.609,14.156c-0.309-4.738-1.884-7.961-4.285-7.961
		c-3.477,0-7.371,6.742-8.699,15.059c-0.008,0.059-0.016,0.117-0.027,0.176h1.419c0.011-0.059,0.019-0.116,0.026-0.176
		c1.027-6.445,4.047-11.672,6.742-11.672s4.047,5.227,3.016,11.672c-0.008,0.059-0.02,0.117-0.027,0.176h2.168
		c0.012-0.082,0.023-0.164,0.039-0.25c1.445-9.065,5.691-16.414,9.48-16.414s5.691,7.349,4.246,16.414
		C602.801,1473.376,602.785,1473.458,602.769,1473.54L602.769,1473.54z"/>
	<path fill="#093B95" d="M610.16,1483.074c-0.844,2.06-2.383,3.563-3.441,3.363c-1.059-0.203-1.234-2.035-0.395-4.098
		c0.84-2.06,2.382-3.563,3.441-3.359C610.824,1479.181,610.999,1481.017,610.16,1483.074L610.16,1483.074z"/>
	<path fill="#093B95" d="M616.706,1482.056c-1.198,2.695-3.19,4.652-4.448,4.371c-1.259-0.277-1.305-2.685-0.102-5.379
		c1.199-2.691,3.191-4.648,4.449-4.371C617.859,1476.958,617.906,1479.364,616.706,1482.056L616.706,1482.056z"/>
	<path fill="#003E8C" d="M600.777,1490.013h12.64l1.224-3.012h-11.805v-0.009h-0.828l1.223-3h-4.246l-1.246,3.043h-0.016
		l-1.203,2.931h0.008l-0.164,0.395h0.012l-2.23,5.438c-0.961,2.707,0.41,3.729,4.254,3.729h11.16l1.246-3.07h-10.176
		c-1.684,0-2.352-0.323-1.798-1.68L600.777,1490.013z M597.226,1487.035h-5.191l1.242-3.043h-4.422l-1.242,3.043h-9.664
		l-1.207,2.938h9.648l-0.23,0.484c-1.82,3.594-5.063,5.565-10.652,6.254l-1.207,2.961c7.989-0.633,13.176-3.539,15.977-8.637h0.004
		l0.605-1.063h5.133L597.226,1487.035z"/>
	<path fill="#093B95" d="M629.941,1487.044l1.043-2.56h-4.262l-1.043,2.56H615.07l-1.223,2.977h5.559
		c-1.996,2.598-4.668,4.734-8.105,6.211l-1.371,3.34h0.355c5.13-1.594,10.094-4.844,13.359-9.551h0.82l-4.273,10.473h4.262
		l4.27-10.473h3.535l1.215-2.977H629.941z"/>
	<path fill="#093B95" d="M554.965,1484.192l-0.863,4.094h0.043l-0.012,0.056h17.715l-0.23,0.594h-0.004
		c-0.398,1.07-0.945,2.047-1.629,2.93c-1.25,1.892-3.098,3.441-5.684,4.738l-0.695-1.25c-0.008,0-0.012,0.004-0.021,0.008
		c-0.229-0.383-0.461-0.754-0.683-1.112c0.008-0.005,0.02-0.009,0.027-0.013c-0.484-0.776-0.957-1.508-1.41-2.155h-0.031
		c-0.023-0.031-0.043-0.066-0.066-0.103l-4.855-0.004c1.832,2.668,3.715,5.965,5.433,9.637c0.45,0.961,0.875,1.914,1.271,2.855
		l5.082,0.004c-0.68-1.605-1.656-3.621-2.758-5.633c5.905-2.078,10.668-6.461,12.543-14.289l0.069-0.336L554.965,1484.192z"/>
</g>
</svg>
